PathFileType	4	(X/Y/Z)	pose_F01_0-90.trc
DataRate	CameraRate	NumFrames	NumMarkers	Units	OrigDataRate	OrigDataStartFrame	OrigNumFrames
30	30	5	21	m	30	11	90
Frame#	Time	CHip			RHip			RKnee			RAnkle			RBigToe			RSmallToe			RHeel			LHip			LKnee			LAnkle			LBigToe			LSmallToe			LHeel			Neck			Nose			RShoulder			RElbow			RWrist			LShoulder			LElbow			LWrist			
		X1	Y1	Z1	X2	Y2	Z2	X3	Y3	Z3	X4	Y4	Z4	X5	Y5	Z5	X6	Y6	Z6	X7	Y7	Z7	X8	Y8	Z8	X9	Y9	Z9	X10	Y10	Z10	X11	Y11	Z11	X12	Y12	Z12	X13	Y13	Z13	X14	Y14	Z14	X15	Y15	Z15	X16	Y16	Z16	X17	Y17	Z17	X18	Y18	Z18	X19	Y19	Z19	X20	Y20	Z20	X21	Y21	Z21	
11	0.36666666666666664	-0.21434139987149714	1.817194130148713	-0.5762946742308618	-0.2285332164134978	1.81353750908888	-0.5127653022395527	-0.23251628727109297	1.6752450334311046	-0.492589421015543	-0.20764020311558662	1.5660263831942283	-0.49948442985905317	-0.24151813589566756	1.5265173219959016	-0.5045101073755103				-0.1958075424233134	1.5630145762922651	-0.4896745283001192	-0.2018043495542518	1.818192619574613	-0.6403844869977878	-0.19768177533115783	1.6813331190955576	-0.5965218428544035	-0.20576431438714105	1.5495477766418373	-0.5733531218884595	-0.2540269767124613	1.5136158133686586	-0.5864627836479713	-0.24109942990750016	1.519120241359646	-0.6028145933974264	-0.19687931580561097	1.5366501440662024	-0.5687845544584752	-1.6592055435513777	1.8908523838171207	1.010202376853652	-0.24401541419984024	2.0555664785110284	-0.6008220147212434	-1.8025290550788227	1.8913642224407077	1.2619140526481734	-0.2338754860274477	1.8857669351819397	-0.48437017400173143	-0.25235219571204554	1.8085329379813255	-0.48544668404889674	-1.4914236727469972	1.8906165685493737	0.734536414158751	-0.1707373260109258	1.8970517153554984	-0.6894281031426498	-0.18773693481795287	1.818408482596983	-0.6890423104969706
12	0.4	-0.21434139987149714	1.817194130148713	-0.5762946742308618	-0.2285332164134978	1.81353750908888	-0.5127653022395527	-0.23251628727109297	1.6752450334311046	-0.492589421015543	-0.20764020311558662	1.5660263831942283	-0.49948442985905317	-0.24151813589566756	1.5265173219959016	-0.5045101073755103				-0.1958075424233134	1.5630145762922651	-0.4896745283001192	-0.2018043495542518	1.818192619574613	-0.6403844869977878	-0.19768177533115783	1.6813331190955576	-0.5965218428544035	-0.20576431438714105	1.5495477766418373	-0.5733531218884595	-0.2540269767124613	1.5136158133686586	-0.5864627836479713	-0.24109942990750016	1.519120241359646	-0.6028145933974264	-0.19687931580561097	1.5366501440662024	-0.5687845544584752	-1.6385259776400212	1.8890929398747485	0.9744582011125118	-0.24401541419984024	2.0555664785110284	-0.6008220147212434	-1.792671504487789	1.891281049199111	1.2438231526093195	-0.2338754860274477	1.8857669351819397	-0.48437017400173143	-0.25235219571204554	1.8085329379813255	-0.48544668404889674	-1.48929397672786	1.8908814488069934	0.732212492731246	-0.1707373260109258	1.8970517153554984	-0.6894281031426498	-0.18773693481795287	1.818408482596983	-0.6890423104969706
13	0.43333333333333335	-0.21434139987149714	1.817194130148713	-0.5762946742308618	-0.2285332164134978	1.81353750908888	-0.5127653022395527	-0.23251628727109297	1.6752450334311046	-0.492589421015543	-0.20764020311558662	1.5660263831942283	-0.49948442985905317	-0.24151813589566756	1.5265173219959016	-0.5045101073755103				-0.1958075424233134	1.5630145762922651	-0.4896745283001192	-0.2018043495542518	1.818192619574613	-0.6403844869977878	-0.19768177533115783	1.6813331190955576	-0.5965218428544035	-0.20576431438714105	1.5495477766418373	-0.5733531218884595	-0.2540269767124613	1.5136158133686586	-0.5864627836479713	-0.24109942990750016	1.519120241359646	-0.6028145933974264	-0.19687931580561097	1.5366501440662024	-0.5687845544584752	-1.6280254034335844	1.88937133256831	0.9563390951532862	-0.24401541419984024	2.0555664785110284	-0.6008220147212434	-1.7812568458756988	1.889276968826898	1.2241860193679988	-0.2338754860274477	1.8857669351819397	-0.48437017400173143	-0.25235219571204554	1.8085329379813255	-0.48544668404889674	-1.4585546197201347	1.8908915300150488	0.6815983320525799	-0.1707373260109258	1.8970517153554984	-0.6894281031426498	-0.18773693481795287	1.818408482596983	-0.6890423104969706
14	0.4666666666666667	-0.21434139987149714	1.817194130148713	-0.5762946742308618	-0.2285332164134978	1.81353750908888	-0.5127653022395527	-0.23251628727109297	1.6752450334311046	-0.492589421015543	-0.20764020311558662	1.5660263831942283	-0.49948442985905317	-0.24151813589566756	1.5265173219959016	-0.5045101073755103				-0.1958075424233134	1.5630145762922651	-0.4896745283001192	-0.2018043495542518	1.818192619574613	-0.6403844869977878	-0.19768177533115783	1.6813331190955576	-0.5965218428544035	-0.20576431438714105	1.5495477766418373	-0.5733531218884595	-0.2540269767124613	1.5136158133686586	-0.5864627836479713	-0.24109942990750016	1.519120241359646	-0.6028145933974264	-0.19687931580561097	1.5366501440662024	-0.5687845544584752	-1.6182861559618886	1.891422630591141	0.9397393360120895	-0.24401541419984024	2.0555664785110284	-0.6008220147212434	-1.7733465287615038	1.8912011297198612	1.2090501865161771	-0.2338754860274477	1.8857669351819397	-0.48437017400173143	-0.25235219571204554	1.8085329379813255	-0.48544668404889674	-1.4388421767802242	1.8914127420980107	0.6487529263428667	-0.1707373260109258	1.8970517153554984	-0.6894281031426498	-0.18773693481795287	1.818408482596983	-0.6890423104969706
15	0.5	-0.21434139987149714	1.817194130148713	-0.5762946742308618	-0.2285332164134978	1.81353750908888	-0.5127653022395527	-0.23251628727109297	1.6752450334311046	-0.492589421015543	-0.20764020311558662	1.5660263831942283	-0.49948442985905317	-0.24151813589566756	1.5265173219959016	-0.5045101073755103				-0.1958075424233134	1.5630145762922651	-0.4896745283001192	-0.2018043495542518	1.818192619574613	-0.6403844869977878	-0.19768177533115783	1.6813331190955576	-0.5965218428544035	-0.20576431438714105	1.5495477766418373	-0.5733531218884595	-0.2540269767124613	1.5136158133686586	-0.5864627836479713	-0.24109942990750016	1.519120241359646	-0.6028145933974264	-0.19687931580561097	1.5366501440662024	-0.5687845544584752	-0.20494841409426728	1.982652170698066	-0.5918743302743478	-0.24401541419984024	2.0555664785110284	-0.6008220147212434	-1.760205477989486	1.8891884617793553	1.1869905005846415	-0.2338754860274477	1.8857669351819397	-0.48437017400173143	-0.25235219571204554	1.8085329379813255	-0.48544668404889674	-0.18254325359156864	1.987360904821255	-0.6809580788816091	-0.1707373260109258	1.8970517153554984	-0.6894281031426498	-0.18773693481795287	1.818408482596983	-0.6890423104969706
